# xmcd
#
# Track frame offsets: 
#        150
#        14996
#        34349
#        46704
#        58614
#        72344
#        86467
#        100898
#        116148
#        130896
#
# Disc length: 1923 seconds
#
# Revision: 0
# Processed by: cddbd v1.5.2PL0 Copyright (c) Steve Scherf et al.
# Submitted via: ExactAudioCopyFreeDBPlugin 1.0
#
DISCID=8b07810a
DTITLE=ก๊อต จักรพรรณ์ อาบครบุรี - มนต์เพลงสุรพล 5
DYEAR=1900
DGENRE=
TTITLE0=เสน่ห์สาวเวียงพิงค์
TTITLE1=ลูกทุ่งเลือดสุพรรณ
TTITLE2=ตา
TTITLE3=คนหัวล้าน
TTITLE4=ควายหาย
TTITLE5=เรื่องของแฟนเพลง
TTITLE6=ป่าซาง
TTITLE7=เสียวไส้
TTITLE8=รำวงออกพรรษา
TTITLE9=มาช่วยกันผลาญ
EXTD=
EXTT0=
EXTT1=
EXTT2=
EXTT3=
EXTT4=
EXTT5=
EXTT6=
EXTT7=
EXTT8=
EXTT9=
PLAYORDER=
